<mxfile host="app.diagrams.net" agent="Mozilla/5.0 (Windows NT 10.0; Win64; x64) AppleWebKit/537.36 (KHTML, like Gecko) Chrome/138.0.0.0 Safari/537.36" version="28.0.5">
  <diagram name="Page-1" id="TLSxbTAF1A14z6ihthi7">
    <mxGraphModel dx="1042" dy="527" grid="1" gridSize="10" guides="1" tooltips="1" connect="1" arrows="1" fold="1" page="1" pageScale="1" pageWidth="1000" pageHeight="1000" math="0" shadow="0">
      <root>
        <mxCell id="0" />
        <mxCell id="1" parent="0" />
        <mxCell id="7Eo2FZw0FCb50S-rKe-6-1" value="" style="rounded=0;whiteSpace=wrap;html=1;gradientColor=none;fillColor=light-dark(#F5F0DC, #fbf0d4);gradientDirection=south;strokeWidth=5;strokeColor=light-dark(#66432A,#66432A);" parent="1" vertex="1">
          <mxGeometry x="203" y="103" width="595" height="795" as="geometry" />
        </mxCell>
        <mxCell id="7Eo2FZw0FCb50S-rKe-6-3" value="&lt;font style=&quot;font-size: 35px;&quot;&gt;&lt;font style=&quot;&quot;&gt;Three&amp;nbsp;&lt;/font&gt;&lt;span style=&quot;background-color: transparent;&quot;&gt;Men’s&amp;nbsp;&lt;/span&gt;&lt;/font&gt;&lt;span style=&quot;font-size: 35px; background-color: transparent;&quot;&gt;Morris&lt;/span&gt;" style="rounded=1;html=1;fillColor=light-dark(#654229,#654229);strokeColor=light-dark(#D4671D,#D4671D);strokeWidth=4;fontColor=light-dark(#FBF0D4,#FBF0D4);fontFamily=Verdana;labelPosition=center;verticalLabelPosition=middle;align=center;verticalAlign=middle;whiteSpace=wrap;arcSize=50;" parent="1" vertex="1">
          <mxGeometry x="258" y="135" width="485" height="85" as="geometry" />
        </mxCell>
        <mxCell id="h-g46ZlZmMxYvaO0gHXE-3" value="&lt;font face=&quot;Lucida Console&quot; style=&quot;font-size: 40px;&quot;&gt;Start&lt;/font&gt;" style="rounded=1;whiteSpace=wrap;html=1;fontSize=35;fillColor=light-dark(#D4671D,#D4671D);arcSize=50;strokeWidth=3;strokeColor=light-dark(#654229,#654229);" parent="1" vertex="1">
          <mxGeometry x="363" y="770" width="275" height="100" as="geometry" />
        </mxCell>
        <mxCell id="Khn2eF95biebbttWJFTb-4" value="&lt;font face=&quot;Courier New&quot; style=&quot;color: light-dark(rgb(101, 66, 41), rgb(101, 66, 41)); font-size: 42px;&quot;&gt;&lt;b&gt;How To Play?&lt;/b&gt;&lt;/font&gt;" style="text;html=1;align=center;verticalAlign=middle;whiteSpace=wrap;rounded=0;" parent="1" vertex="1">
          <mxGeometry x="305" y="240" width="390" height="50" as="geometry" />
        </mxCell>
        <mxCell id="Khn2eF95biebbttWJFTb-5" value="&lt;font style=&quot;color: light-dark(rgb(101, 66, 41), rgb(101, 66, 41)); font-size: 35px;&quot;&gt;Objective&lt;/font&gt;" style="text;html=1;align=center;verticalAlign=middle;whiteSpace=wrap;rounded=0;" parent="1" vertex="1">
          <mxGeometry x="400" y="300" width="200" height="50" as="geometry" />
        </mxCell>
        <mxCell id="Khn2eF95biebbttWJFTb-6" value="" style="endArrow=none;html=1;rounded=1;strokeWidth=6;curved=0;strokeColor=light-dark(#D4671D,#D4671D);exitX=0.915;exitY=0.969;exitDx=0;exitDy=0;exitPerimeter=0;" parent="1" edge="1">
          <mxGeometry width="50" height="50" relative="1" as="geometry">
            <mxPoint x="654" y="290" as="sourcePoint" />
            <mxPoint x="346" y="290" as="targetPoint" />
          </mxGeometry>
        </mxCell>
        <mxCell id="Khn2eF95biebbttWJFTb-7" value="&lt;p data-start=&quot;967&quot; data-end=&quot;1085&quot; style=&quot;text-align: justify;&quot;&gt;&lt;font style=&quot;color: light-dark(rgb(101, 66, 41), rgb(101, 66, 41)); font-size: 21px;&quot;&gt;Get three of your tokens in a row — horizontally, vertically, or diagonally — before your opponent does.&lt;/font&gt;&lt;/p&gt;&lt;p data-start=&quot;1087&quot; data-end=&quot;1108&quot;&gt;&lt;/p&gt;" style="text;html=1;align=right;verticalAlign=middle;whiteSpace=wrap;rounded=0;" parent="1" vertex="1">
          <mxGeometry x="230" y="335" width="540" height="80" as="geometry" />
        </mxCell>
        <mxCell id="Khn2eF95biebbttWJFTb-8" value="&lt;font style=&quot;color: light-dark(rgb(101, 66, 41), rgb(101, 66, 41)); font-size: 35px;&quot;&gt;Phase 1: Placement&lt;/font&gt;" style="text;html=1;align=center;verticalAlign=middle;whiteSpace=wrap;rounded=0;" parent="1" vertex="1">
          <mxGeometry x="335" y="400" width="330" height="50" as="geometry" />
        </mxCell>
        <mxCell id="Khn2eF95biebbttWJFTb-9" value="&lt;p style=&quot;&quot; data-end=&quot;1085&quot; data-start=&quot;967&quot;&gt;&lt;/p&gt;&lt;font style=&quot;color: light-dark(rgb(101, 66, 41), rgb(101, 66, 41)); font-size: 22px;&quot;&gt;&lt;div style=&quot;text-align: justify;&quot;&gt;&lt;span style=&quot;background-color: transparent;&quot;&gt;Players take turns placing their 3 tokens on empty circles.&amp;nbsp;&lt;/span&gt;&lt;span style=&quot;background-color: transparent;&quot;&gt;&lt;font style=&quot;&quot;&gt;Once all tokens are placed, the game moves to the movement phase.&lt;/font&gt;&lt;/span&gt;&lt;/div&gt;&lt;/font&gt;&lt;p&gt;&lt;/p&gt;&lt;p data-end=&quot;1108&quot; data-start=&quot;1087&quot;&gt;&lt;/p&gt;" style="text;html=1;align=left;verticalAlign=middle;whiteSpace=wrap;rounded=0;" parent="1" vertex="1">
          <mxGeometry x="230" y="445" width="540" height="80" as="geometry" />
        </mxCell>
        <mxCell id="Khn2eF95biebbttWJFTb-10" value="&lt;font style=&quot;color: light-dark(rgb(101, 66, 41), rgb(101, 66, 41)); font-size: 35px;&quot;&gt;Phase 2: Movement&lt;/font&gt;" style="text;html=1;align=center;verticalAlign=middle;whiteSpace=wrap;rounded=0;" parent="1" vertex="1">
          <mxGeometry x="335" y="520" width="330" height="50" as="geometry" />
        </mxCell>
        <mxCell id="Khn2eF95biebbttWJFTb-11" value="&lt;p style=&quot;&quot; data-end=&quot;1085&quot; data-start=&quot;967&quot;&gt;&lt;/p&gt;&lt;font style=&quot;color: light-dark(rgb(101, 66, 41), rgb(101, 66, 41)); font-size: 22px;&quot;&gt;&lt;div style=&quot;text-align: justify;&quot;&gt;&lt;span style=&quot;color: light-dark(rgb(101, 66, 41), rgb(101, 66, 41)); background-color: transparent; text-align: left;&quot;&gt;On your turn, select one of your pieces&lt;/span&gt;&lt;span style=&quot;background-color: transparent;&quot;&gt;.&amp;nbsp;&lt;/span&gt;Move it to an adjacent empty circle.&lt;span style=&quot;background-color: transparent;&quot;&gt;&lt;font style=&quot;&quot;&gt;&amp;nbsp;&lt;/font&gt;&lt;/span&gt;Use strategy to block your opponent and align your own tokens&lt;span style=&quot;background-color: transparent;&quot;&gt;&lt;font style=&quot;&quot;&gt;.&lt;/font&gt;&lt;/span&gt;&lt;/div&gt;&lt;/font&gt;&lt;p&gt;&lt;/p&gt;&lt;p data-end=&quot;1108&quot; data-start=&quot;1087&quot;&gt;&lt;/p&gt;" style="text;html=1;align=left;verticalAlign=middle;whiteSpace=wrap;rounded=0;" parent="1" vertex="1">
          <mxGeometry x="230" y="570" width="540" height="80" as="geometry" />
        </mxCell>
        <mxCell id="Khn2eF95biebbttWJFTb-12" value="&lt;font style=&quot;color: light-dark(rgb(101, 66, 41), rgb(101, 66, 41)); font-size: 35px;&quot;&gt;Winning&lt;/font&gt;" style="text;html=1;align=center;verticalAlign=middle;whiteSpace=wrap;rounded=0;" parent="1" vertex="1">
          <mxGeometry x="423" y="650" width="150" height="50" as="geometry" />
        </mxCell>
        <mxCell id="Khn2eF95biebbttWJFTb-13" value="&lt;p style=&quot;&quot; data-end=&quot;1085&quot; data-start=&quot;967&quot;&gt;&lt;/p&gt;&lt;font style=&quot;color: light-dark(rgb(101, 66, 41), rgb(101, 66, 41)); font-size: 22px;&quot;&gt;&lt;div style=&quot;text-align: justify;&quot;&gt;The first player to form a straight line (&lt;span style=&quot;font-size: 21px; color: light-dark(rgb(101, 66, 41), rgb(101, 66, 41)); background-color: transparent;&quot;&gt;horizontally, vertically, or diagonally)&lt;/span&gt;&lt;span style=&quot;color: light-dark(rgb(101, 66, 41), rgb(101, 66, 41)); background-color: transparent;&quot;&gt;&amp;nbsp;of 3 tokens wins the game!&lt;/span&gt;&lt;/div&gt;&lt;/font&gt;&lt;p&gt;&lt;/p&gt;&lt;p data-end=&quot;1108&quot; data-start=&quot;1087&quot;&gt;&lt;/p&gt;" style="text;html=1;align=left;verticalAlign=middle;whiteSpace=wrap;rounded=0;" parent="1" vertex="1">
          <mxGeometry x="230" y="680" width="540" height="80" as="geometry" />
        </mxCell>
      </root>
    </mxGraphModel>
  </diagram>
</mxfile>
